<svg xmlns="http://www.w3.org/2000/svg" xmlns:xlink="http://www.w3.org/1999/xlink" width="48" zoomAndPan="magnify" viewBox="0 0 36 36.000001" height="48" preserveAspectRatio="xMidYMid meet" version="1.2"><defs><clipPath id="f8dff4c0fb"><path d="M 0.488281 0 L 35.511719 0 L 35.511719 35.027344 L 0.488281 35.027344 Z M 0.488281 0 "/></clipPath><clipPath id="e8c8162cb9"><path d="M 9 8 L 28 8 L 28 28 L 9 28 Z M 9 8 "/></clipPath><clipPath id="4d52eee3f2"><path d="M 33.523438 21.171875 L 21.65625 33.039062 L 2.5625 13.949219 L 14.433594 2.082031 Z M 33.523438 21.171875 "/></clipPath><clipPath id="234a219d43"><path d="M 33.523438 21.171875 L 21.65625 33.039062 L 2.5625 13.949219 L 14.433594 2.082031 Z M 33.523438 21.171875 "/></clipPath><clipPath id="977897fdd6"><path d="M 16 15 L 21 15 L 21 20 L 16 20 Z M 16 15 "/></clipPath><clipPath id="3904ecbac0"><path d="M 33.523438 21.171875 L 21.65625 33.039062 L 2.5625 13.949219 L 14.433594 2.082031 Z M 33.523438 21.171875 "/></clipPath><clipPath id="2dc8ab5bc6"><path d="M 33.523438 21.171875 L 21.65625 33.039062 L 2.5625 13.949219 L 14.433594 2.082031 Z M 33.523438 21.171875 "/></clipPath><clipPath id="283a253836"><path d="M 4 3 L 17 3 L 17 16 L 4 16 Z M 4 3 "/></clipPath><clipPath id="e667474aeb"><path d="M 33.523438 21.171875 L 21.65625 33.039062 L 2.5625 13.949219 L 14.433594 2.082031 Z M 33.523438 21.171875 "/></clipPath><clipPath id="a7aacd9c85"><path d="M 33.523438 21.171875 L 21.65625 33.039062 L 2.5625 13.949219 L 14.433594 2.082031 Z M 33.523438 21.171875 "/></clipPath></defs><g id="a30bbd3d72"><g clip-rule="nonzero" clip-path="url(#f8dff4c0fb)"><path style=" stroke:none;fill-rule:nonzero;fill:#ffffff;fill-opacity:1;" d="M 0.488281 0 L 35.511719 0 L 35.511719 35.027344 L 0.488281 35.027344 Z M 0.488281 0 "/><path style=" stroke:none;fill-rule:nonzero;fill:#2563eb;fill-opacity:1;" d="M 0.488281 0 L 35.511719 0 L 35.511719 35.027344 L 0.488281 35.027344 Z M 0.488281 0 "/></g><g clip-rule="nonzero" clip-path="url(#e8c8162cb9)"><g clip-rule="nonzero" clip-path="url(#4d52eee3f2)"><g clip-rule="nonzero" clip-path="url(#234a219d43)"><path style=" stroke:none;fill-rule:nonzero;fill:#ffffff;fill-opacity:1;" d="M 23.660156 11.847656 C 22.296875 11.820312 19.601562 11.335938 16.601562 8.496094 L 9.039062 16.058594 C 11.878906 19.058594 12.363281 21.75 12.390625 23.117188 C 12.402344 23.597656 12.746094 24.007812 13.230469 24.121094 L 27.101562 27.246094 L 20 20.144531 C 18.863281 20.949219 17.273438 20.847656 16.253906 19.832031 C 15.117188 18.695312 15.117188 16.847656 16.253906 15.710938 C 17.390625 14.574219 19.238281 14.574219 20.375 15.710938 C 21.394531 16.730469 21.492188 18.320312 20.6875 19.457031 L 27.789062 26.558594 L 24.664062 12.6875 C 24.550781 12.203125 24.140625 11.859375 23.660156 11.847656 "/></g></g></g><g clip-rule="nonzero" clip-path="url(#977897fdd6)"><g clip-rule="nonzero" clip-path="url(#3904ecbac0)"><g clip-rule="nonzero" clip-path="url(#2dc8ab5bc6)"><path style=" stroke:none;fill-rule:nonzero;fill:#ffffff;fill-opacity:1;" d="M 19.6875 16.398438 C 18.929688 15.640625 17.699219 15.640625 16.941406 16.398438 C 16.183594 17.15625 16.183594 18.386719 16.941406 19.144531 C 17.699219 19.902344 18.929688 19.902344 19.6875 19.144531 C 20.445312 18.386719 20.445312 17.15625 19.6875 16.398438 "/></g></g></g><g clip-rule="nonzero" clip-path="url(#283a253836)"><g clip-rule="nonzero" clip-path="url(#e667474aeb)"><g clip-rule="nonzero" clip-path="url(#a7aacd9c85)"><path style=" stroke:none;fill-rule:nonzero;fill:#ffffff;fill-opacity:1;" d="M 16.253906 6.785156 L 13.507812 4.039062 C 13.320312 3.851562 13.011719 3.851562 12.820312 4.039062 L 4.582031 12.277344 C 4.394531 12.46875 4.394531 12.777344 4.582031 12.964844 L 7.328125 15.710938 C 7.519531 15.898438 7.828125 15.898438 8.015625 15.710938 L 16.253906 7.472656 C 16.445312 7.285156 16.445312 6.976562 16.253906 6.785156 "/></g></g></g></g></svg>