<svg xmlns="http://www.w3.org/2000/svg" xmlns:xlink="http://www.w3.org/1999/xlink" width="48" zoomAndPan="magnify" viewBox="0 0 36 36.000001" height="48" preserveAspectRatio="xMidYMid meet" version="1.0"><defs><clipPath id="c04eb4456b"><path d="M 1.945312 8 L 13 8 L 13 27 L 1.945312 27 Z M 1.945312 8 " clip-rule="nonzero"/></clipPath><clipPath id="3479355efd"><path d="M 32.960938 14.59375 L 18 14.59375 L 18 20.796875 L 26.609375 20.796875 C 25.808594 24.738281 22.453125 27 18 27 C 12.746094 27 8.511719 22.765625 8.511719 17.511719 C 8.511719 12.257812 12.746094 8.027344 18 8.027344 C 20.261719 8.027344 22.304688 8.828125 23.910156 10.144531 L 28.582031 5.472656 C 25.734375 2.992188 22.085938 1.460938 18 1.460938 C 9.097656 1.460938 1.945312 8.609375 1.945312 17.511719 C 1.945312 26.417969 9.097656 33.566406 18 33.566406 C 26.027344 33.566406 33.324219 27.730469 33.324219 17.511719 C 33.324219 16.566406 33.179688 15.542969 32.960938 14.59375 Z M 32.960938 14.59375 " clip-rule="nonzero"/></clipPath><clipPath id="895d72dfc6"><path d="M 1.945312 1.460938 L 33.324219 1.460938 L 33.324219 18 L 1.945312 18 Z M 1.945312 1.460938 " clip-rule="nonzero"/></clipPath><clipPath id="8a0746f8a7"><path d="M 32.960938 14.59375 L 18 14.59375 L 18 20.796875 L 26.609375 20.796875 C 25.808594 24.738281 22.453125 27 18 27 C 12.746094 27 8.511719 22.765625 8.511719 17.511719 C 8.511719 12.257812 12.746094 8.027344 18 8.027344 C 20.261719 8.027344 22.304688 8.828125 23.910156 10.144531 L 28.582031 5.472656 C 25.734375 2.992188 22.085938 1.460938 18 1.460938 C 9.097656 1.460938 1.945312 8.609375 1.945312 17.511719 C 1.945312 26.417969 9.097656 33.566406 18 33.566406 C 26.027344 33.566406 33.324219 27.730469 33.324219 17.511719 C 33.324219 16.566406 33.179688 15.542969 32.960938 14.59375 Z M 32.960938 14.59375 " clip-rule="nonzero"/></clipPath><clipPath id="d6676ff945"><path d="M 1.945312 1.460938 L 33.324219 1.460938 L 33.324219 33.566406 L 1.945312 33.566406 Z M 1.945312 1.460938 " clip-rule="nonzero"/></clipPath><clipPath id="1b3bce5688"><path d="M 32.960938 14.59375 L 18 14.59375 L 18 20.796875 L 26.609375 20.796875 C 25.808594 24.738281 22.453125 27 18 27 C 12.746094 27 8.511719 22.765625 8.511719 17.511719 C 8.511719 12.257812 12.746094 8.027344 18 8.027344 C 20.261719 8.027344 22.304688 8.828125 23.910156 10.144531 L 28.582031 5.472656 C 25.734375 2.992188 22.085938 1.460938 18 1.460938 C 9.097656 1.460938 1.945312 8.609375 1.945312 17.511719 C 1.945312 26.417969 9.097656 33.566406 18 33.566406 C 26.027344 33.566406 33.324219 27.730469 33.324219 17.511719 C 33.324219 16.566406 33.179688 15.542969 32.960938 14.59375 Z M 32.960938 14.59375 " clip-rule="nonzero"/></clipPath><clipPath id="119d8080d0"><path d="M 9 8 L 33.324219 8 L 33.324219 33.566406 L 9 33.566406 Z M 9 8 " clip-rule="nonzero"/></clipPath><clipPath id="134e10619c"><path d="M 32.960938 14.59375 L 18 14.59375 L 18 20.796875 L 26.609375 20.796875 C 25.808594 24.738281 22.453125 27 18 27 C 12.746094 27 8.511719 22.765625 8.511719 17.511719 C 8.511719 12.257812 12.746094 8.027344 18 8.027344 C 20.261719 8.027344 22.304688 8.828125 23.910156 10.144531 L 28.582031 5.472656 C 25.734375 2.992188 22.085938 1.460938 18 1.460938 C 9.097656 1.460938 1.945312 8.609375 1.945312 17.511719 C 1.945312 26.417969 9.097656 33.566406 18 33.566406 C 26.027344 33.566406 33.324219 27.730469 33.324219 17.511719 C 33.324219 16.566406 33.179688 15.542969 32.960938 14.59375 Z M 32.960938 14.59375 " clip-rule="nonzero"/></clipPath></defs><g clip-path="url(#c04eb4456b)"><g clip-path="url(#3479355efd)"><path fill="#fbbc05" d="M 0.488281 27 L 0.488281 8.027344 L 12.890625 17.511719 Z M 0.488281 27 " fill-opacity="1" fill-rule="nonzero"/></g></g><g clip-path="url(#895d72dfc6)"><g clip-path="url(#8a0746f8a7)"><path fill="#ea4335" d="M 0.488281 8.027344 L 12.890625 17.511719 L 18 13.0625 L 35.511719 10.214844 L 35.511719 0 L 0.488281 0 Z M 0.488281 8.027344 " fill-opacity="1" fill-rule="nonzero"/></g></g><g clip-path="url(#d6676ff945)"><g clip-path="url(#1b3bce5688)"><path fill="#34a853" d="M 0.488281 27 L 22.378906 10.214844 L 28.144531 10.945312 L 35.511719 0 L 35.511719 35.027344 L 0.488281 35.027344 Z M 0.488281 27 " fill-opacity="1" fill-rule="nonzero"/></g></g><g clip-path="url(#119d8080d0)"><g clip-path="url(#134e10619c)"><path fill="#4285f4" d="M 35.511719 35.027344 L 12.890625 17.511719 L 9.972656 15.324219 L 35.511719 8.027344 Z M 35.511719 35.027344 " fill-opacity="1" fill-rule="nonzero"/></g></g></svg>