<svg xmlns="http://www.w3.org/2000/svg" xmlns:xlink="http://www.w3.org/1999/xlink" width="512" zoomAndPan="magnify" viewBox="0 0 384 383.999986" height="512" preserveAspectRatio="xMidYMid meet" version="1.0"><path fill="#000000" d="M 118.496094 0 L 265.492188 0 C 267.433594 0 269.371094 0.046875 271.308594 0.144531 C 273.242188 0.238281 275.175781 0.378906 277.109375 0.570312 C 279.039062 0.761719 280.960938 0.996094 282.878906 1.28125 C 284.796875 1.566406 286.707031 1.898438 288.609375 2.277344 C 290.511719 2.65625 292.402344 3.078125 294.285156 3.550781 C 296.167969 4.023438 298.035156 4.539062 299.890625 5.101562 C 301.746094 5.664062 303.585938 6.273438 305.414062 6.925781 C 307.238281 7.582031 309.046875 8.277344 310.839844 9.019531 C 312.632812 9.761719 314.402344 10.546875 316.15625 11.378906 C 317.910156 12.207031 319.640625 13.078125 321.351562 13.992188 C 323.0625 14.90625 324.75 15.863281 326.414062 16.859375 C 328.078125 17.855469 329.714844 18.894531 331.328125 19.96875 C 332.9375 21.046875 334.523438 22.164062 336.082031 23.320312 C 337.640625 24.476562 339.167969 25.667969 340.667969 26.898438 C 342.167969 28.128906 343.632812 29.394531 345.070312 30.695312 C 346.507812 32 347.914062 33.335938 349.285156 34.707031 C 350.65625 36.078125 351.992188 37.484375 353.292969 38.917969 C 354.597656 40.355469 355.863281 41.824219 357.09375 43.324219 C 358.324219 44.824219 359.515625 46.351562 360.671875 47.910156 C 361.828125 49.464844 362.941406 51.050781 364.019531 52.664062 C 365.097656 54.277344 366.136719 55.914062 367.132812 57.578125 C 368.128906 59.242188 369.085938 60.929688 370 62.636719 C 370.914062 64.347656 371.785156 66.082031 372.613281 67.832031 C 373.441406 69.585938 374.230469 71.359375 374.972656 73.152344 C 375.714844 74.941406 376.410156 76.75 377.0625 78.578125 C 377.71875 80.402344 378.324219 82.246094 378.886719 84.101562 C 379.453125 85.957031 379.96875 87.824219 380.441406 89.707031 C 380.910156 91.585938 381.335938 93.476562 381.714844 95.378906 C 382.09375 97.28125 382.421875 99.191406 382.707031 101.109375 C 382.992188 103.03125 383.230469 104.953125 383.421875 106.882812 C 383.609375 108.8125 383.753906 110.746094 383.847656 112.683594 C 383.945312 114.621094 383.992188 116.558594 383.992188 118.5 L 383.992188 265.496094 C 383.992188 267.433594 383.945312 269.371094 383.847656 271.308594 C 383.753906 273.246094 383.609375 275.179688 383.421875 277.109375 C 383.230469 279.039062 382.992188 280.964844 382.707031 282.882812 C 382.421875 284.800781 382.09375 286.710938 381.714844 288.613281 C 381.335938 290.515625 380.910156 292.40625 380.441406 294.289062 C 379.96875 296.167969 379.453125 298.039062 378.886719 299.894531 C 378.324219 301.75 377.71875 303.589844 377.0625 305.414062 C 376.410156 307.242188 375.714844 309.050781 374.972656 310.84375 C 374.230469 312.632812 373.441406 314.40625 372.613281 316.160156 C 371.785156 317.914062 370.914062 319.644531 370 321.355469 C 369.085938 323.066406 368.128906 324.75 367.132812 326.414062 C 366.136719 328.078125 365.097656 329.714844 364.019531 331.328125 C 362.941406 332.941406 361.828125 334.527344 360.671875 336.085938 C 359.515625 337.640625 358.324219 339.171875 357.09375 340.667969 C 355.863281 342.167969 354.597656 343.636719 353.292969 345.074219 C 351.992188 346.511719 350.65625 347.914062 349.285156 349.285156 C 347.914062 350.65625 346.507812 351.992188 345.070312 353.296875 C 343.632812 354.597656 342.167969 355.863281 340.667969 357.09375 C 339.167969 358.324219 337.640625 359.519531 336.082031 360.671875 C 334.523438 361.828125 332.9375 362.945312 331.328125 364.023438 C 329.714844 365.101562 328.078125 366.136719 326.414062 367.132812 C 324.75 368.132812 323.0625 369.085938 321.351562 370 C 319.640625 370.914062 317.910156 371.785156 316.15625 372.617188 C 314.402344 373.445312 312.632812 374.230469 310.839844 374.972656 C 309.046875 375.714844 307.238281 376.414062 305.414062 377.066406 C 303.585938 377.71875 301.746094 378.328125 299.890625 378.890625 C 298.035156 379.453125 296.167969 379.972656 294.285156 380.441406 C 292.402344 380.914062 290.511719 381.339844 288.609375 381.714844 C 286.707031 382.09375 284.796875 382.425781 282.878906 382.710938 C 280.960938 382.996094 279.039062 383.234375 277.109375 383.421875 C 275.175781 383.613281 273.242188 383.753906 271.308594 383.851562 C 269.371094 383.945312 267.433594 383.992188 265.492188 383.992188 L 118.496094 383.992188 C 116.558594 383.992188 114.617188 383.945312 112.683594 383.851562 C 110.746094 383.753906 108.8125 383.613281 106.882812 383.421875 C 104.953125 383.234375 103.027344 382.996094 101.109375 382.710938 C 99.191406 382.425781 97.28125 382.09375 95.378906 381.714844 C 93.476562 381.339844 91.585938 380.914062 89.703125 380.441406 C 87.820312 379.972656 85.953125 379.453125 84.097656 378.890625 C 82.242188 378.328125 80.402344 377.71875 78.574219 377.066406 C 76.75 376.414062 74.941406 375.714844 73.148438 374.972656 C 71.355469 374.230469 69.585938 373.445312 67.832031 372.617188 C 66.078125 371.785156 64.347656 370.914062 62.636719 370 C 60.925781 369.085938 59.238281 368.132812 57.574219 367.132812 C 55.914062 366.136719 54.273438 365.101562 52.660156 364.023438 C 51.050781 362.945312 49.464844 361.828125 47.90625 360.671875 C 46.347656 359.519531 44.820312 358.324219 43.320312 357.09375 C 41.824219 355.863281 40.355469 354.597656 38.917969 353.296875 C 37.480469 351.992188 36.078125 350.65625 34.707031 349.285156 C 33.332031 347.914062 31.996094 346.511719 30.695312 345.074219 C 29.390625 343.636719 28.125 342.167969 26.894531 340.667969 C 25.664062 339.171875 24.472656 337.640625 23.316406 336.085938 C 22.160156 334.527344 21.046875 332.941406 19.96875 331.328125 C 18.890625 329.714844 17.855469 328.078125 16.855469 326.414062 C 15.859375 324.75 14.902344 323.066406 13.988281 321.355469 C 13.074219 319.644531 12.203125 317.914062 11.375 316.160156 C 10.546875 314.40625 9.761719 312.632812 9.019531 310.84375 C 8.277344 309.050781 7.578125 307.242188 6.925781 305.414062 C 6.269531 303.589844 5.664062 301.75 5.101562 299.894531 C 4.539062 298.039062 4.019531 296.167969 3.550781 294.289062 C 3.078125 292.40625 2.652344 290.515625 2.273438 288.613281 C 1.894531 286.710938 1.566406 284.800781 1.28125 282.882812 C 0.996094 280.964844 0.757812 279.039062 0.570312 277.109375 C 0.378906 275.179688 0.234375 273.246094 0.140625 271.308594 C 0.046875 269.371094 -0.00390625 267.433594 -0.00390625 265.496094 L -0.00390625 118.5 C -0.00390625 116.558594 0.046875 114.621094 0.140625 112.683594 C 0.234375 110.746094 0.378906 108.8125 0.570312 106.882812 C 0.757812 104.953125 0.996094 103.03125 1.28125 101.109375 C 1.566406 99.191406 1.894531 97.28125 2.273438 95.378906 C 2.652344 93.476562 3.078125 91.585938 3.550781 89.707031 C 4.019531 87.824219 4.539062 85.957031 5.101562 84.101562 C 5.664062 82.246094 6.269531 80.402344 6.925781 78.578125 C 7.578125 76.75 8.277344 74.941406 9.019531 73.152344 C 9.761719 71.359375 10.546875 69.585938 11.375 67.832031 C 12.203125 66.082031 13.074219 64.347656 13.988281 62.636719 C 14.902344 60.929688 15.859375 59.242188 16.855469 57.578125 C 17.855469 55.914062 18.890625 54.277344 19.96875 52.664062 C 21.046875 51.050781 22.160156 49.464844 23.316406 47.910156 C 24.472656 46.351562 25.664062 44.824219 26.894531 43.324219 C 28.125 41.824219 29.390625 40.355469 30.695312 38.917969 C 31.996094 37.484375 33.332031 36.078125 34.707031 34.707031 C 36.078125 33.335938 37.480469 32 38.917969 30.695312 C 40.355469 29.394531 41.824219 28.128906 43.320312 26.898438 C 44.820312 25.667969 46.347656 24.476562 47.90625 23.320312 C 49.464844 22.164062 51.050781 21.046875 52.660156 19.96875 C 54.273438 18.894531 55.914062 17.855469 57.574219 16.859375 C 59.238281 15.863281 60.925781 14.90625 62.636719 13.992188 C 64.347656 13.078125 66.078125 12.207031 67.832031 11.378906 C 69.585938 10.546875 71.355469 9.761719 73.148438 9.019531 C 74.941406 8.277344 76.75 7.582031 78.574219 6.925781 C 80.402344 6.273438 82.242188 5.664062 84.097656 5.101562 C 85.953125 4.539062 87.820312 4.023438 89.703125 3.550781 C 91.585938 3.078125 93.476562 2.65625 95.378906 2.277344 C 97.28125 1.898438 99.191406 1.566406 101.109375 1.28125 C 103.027344 0.996094 104.953125 0.761719 106.882812 0.570312 C 108.8125 0.378906 110.746094 0.238281 112.683594 0.144531 C 114.617188 0.046875 116.558594 0 118.496094 0 Z M 118.496094 0 " fill-opacity="1" fill-rule="evenodd"/><path fill="#fefefe" d="M 185.710938 207.207031 L 176.042969 193.367188 L 99.082031 83.292969 L 132.222656 83.292969 L 194.320312 172.136719 L 203.992188 185.960938 L 284.714844 301.4375 L 251.589844 301.4375 L 185.710938 207.210938 Z M 215.253906 172.859375 L 306.277344 67.054688 L 284.695312 67.054688 L 205.667969 158.921875 L 142.546875 67.054688 L 69.742188 67.054688 L 165.195312 205.972656 L 69.742188 316.929688 L 91.316406 316.929688 L 174.765625 219.914062 L 241.4375 316.929688 L 314.242188 316.929688 L 215.238281 172.863281 L 215.253906 172.863281 Z M 215.253906 172.859375 " fill-opacity="1" fill-rule="nonzero"/></svg>